PathFileType	4	(X/Y/Z)	G:\GRF\jawan data\CompiledGRF\03. Mohit Kumar\0231~ac~Walking 02_markers.trc
DataRate	CameraRate	NumFrames	NumMarkers	Units	OrigDataRate	OrigDataStartFrame	OrigNumFrames
100.000000	100.000000	7	18	mm	100.000000	445	891
Frame#	Time	c7			r should			l should			sacrum			r asis			r bar 1			r knee 1			r bar 2			r mall			r heel			r met			l asis			l bar 1			l knee 1			l bar 2			l mall			l heel			l met			
		X1	Y1	Z1	X2	Y2	Z2	X3	Y3	Z3	X4	Y4	Z4	X5	Y5	Z5	X6	Y6	Z6	X7	Y7	Z7	X8	Y8	Z8	X9	Y9	Z9	X10	Y10	Z10	X11	Y11	Z11	X12	Y12	Z12	X13	Y13	Z13	X14	Y14	Z14	X15	Y15	Z15	X16	Y16	Z16	X17	Y17	Z17	X18	Y18	Z18	

446	4.45	878.2084350585938	1499.849975585938	204.5277099609375	782.4738159179688	1434.818969726563	42.75556564331055	812.267578125	1451.826538085938	380.8704528808594	912.2276611328125	1032.968872070313	208.5626373291016	719.4048461914063	1006.618041992188	106.8327026367188	668.7244873046875	603.7872314453125	21.53103065490723	621.2509155273438	531.4911499023438	71.13355255126953	573.5142211914063	210.7422943115234	37.82229232788086	518.9892578125	87.71541595458984	94.39759826660156	559.0034790039063	31.85171699523926	144.1831817626953	363.2281799316406	106.1913757324219	100.7178955078125	744.4121704101563	1005.032287597656	355.6601257324219	864.7816162109375	586.7388916015625	398.8896484375	866.2442626953125	498.934814453125	337.9497680664063	985.9513549804688	242.6866149902344	377.0301208496094	1046.011474609375	83.07383728027344	304.7681579589844	1116.966430664063	52.73520660400391	256.9270935058594	909.77783203125	36.34569931030273	277.30810546875	
447	4.46	868.7000122070313	1499.074340820313	203.0442352294922	772.6436767578125	1434.193481445313	41.48419570922852	803.3046264648438	1450.933227539063	379.5362548828125	902.4776000976563	1032.107666015625	207.0242767333984	709.5413208007813	1005.680297851563	106.278694152832	659.500732421875	602.6992797851563	21.23839378356934	612.6910400390625	530.3619995117188	71.09318542480469	561.6310424804688	209.7958374023438	37.95151519775391	507.0122375488281	87.26728057861328	95.0880126953125	546.6297607421875	31.08592414855957	144.548583984375	354.191162109375	105.1851654052734	102.272819519043	735.560546875	1004.312377929688	354.9518432617188	858.1111450195313	586.6275634765625	398.3581237792969	859.8074951171875	498.6443786621094	337.6763305664063	982.8951416015625	243.9165191650391	376.9188232421875	1045.075317382813	84.88899230957031	304.9796142578125	1116.5380859375	55.54220962524414	257.0870971679688	909.77099609375	36.30329132080078	277.3439025878906	
448	4.47	859.215576171875	1498.31396484375	201.4970245361328	762.7689819335938	1433.707763671875	40.08864974975586	794.259521484375	1450.148803710938	378.1028442382813	892.8110961914063	1031.34912109375	205.4598388671875	699.465576171875	1004.906555175781	105.6537399291992	650.0313110351563	601.7839965820313	20.79575729370117	603.81201171875	529.2960205078125	71.02023315429688	551.1340942382813	208.7831726074219	38.121826171875	496.4986572265625	86.55008697509766	95.65594482421875	536.12939453125	30.38140678405762	144.9216613769531	349.4699401855469	101.8877182006836	104.1309661865234	726.4035034179688	1003.650207519531	354.2326049804688	851.3092041015625	586.5917358398438	397.8631591796875	853.4518432617188	498.2310180664063	337.3959350585938	979.6257934570313	245.2301330566406	376.901611328125	1043.964599609375	86.87002563476563	305.267333984375	1115.837768554688	58.55974960327148	257.3877258300781	909.7578735351563	36.28635025024414	277.4351196289063	
449	4.48	849.6976928710938	1497.681640625	199.8899993896484	752.932861328125	1433.289794921875	38.62068939208984	785.0879516601563	1449.496459960938	376.5953979492188	882.9904174804688	1030.644653320313	203.8804321289063	689.1314086914063	1004.3740234375	104.9862976074219	640.2369995117188	600.971923828125	20.4222583770752	594.6500854492188	528.31201171875	70.90438079833984	541.9746704101563	207.7607574462891	38.35714721679688	487.5292358398438	85.48713684082031	96.18543243408203	527.0961303710938	29.15011405944824	145.1365051269531	341.9381103515625	99.86389923095703	105.7123107910156	717.4545288085938	1002.922668457031	353.5115051269531	844.0614624023438	586.53369140625	397.3413391113281	846.6392822265625	497.8309326171875	337.0808410644531	976.099853515625	246.6007537841797	376.9698791503906	1042.705932617188	89.05771636962891	305.6129455566406	1114.851806640625	61.80744552612305	257.8446960449219	909.6809692382813	36.20700073242188	277.4639282226563	
450	4.49	840.3091430664063	1497.0380859375	198.1248626708984	743.0645141601563	1433.0205078125	37.0096549987793	775.8059692382813	1448.974365234375	375.008544921875	872.9200439453125	1030.08642578125	202.3055572509766	678.6491088867188	1003.933898925781	104.2264862060547	630.0775146484375	600.2554931640625	20.08012390136719	585.2921142578125	527.4369506835938	70.96257019042969	534.0844116210938	206.5934143066406	38.54498672485352	480.3274230957031	84.05518341064453	96.61817169189453	520.310546875	27.54247856140137	145.3245849609375	335.1081848144531	97.32357788085938	107.0762939453125	708.1286010742188	1002.288330078125	352.7554626464844	836.5496215820313	586.4981689453125	396.8727416992188	839.3151245117188	497.5679016113281	336.8031005859375	972.0692138671875	248.0657653808594	377.0826721191406	1041.400390625	91.40480804443359	305.9627075195313	1113.7294921875	65.39744567871094	258.3729553222656	909.7214965820313	36.27301406860352	277.3889465332031	
451	4.5	830.840576171875	1496.427978515625	196.3636322021484	732.950439453125	1432.897705078125	35.39882659912109	766.270751953125	1448.599243164063	373.3754272460938	862.4024047851563	1029.56689453125	200.7398071289063	667.745849609375	1003.614807128906	103.4457855224609	619.58056640625	599.55322265625	19.82313537597656	575.3446044921875	526.7760620117188	71.14678955078125	527.111083984375	205.1435546875	38.67387771606445	474.6041259765625	82.23860168457031	96.85452270507813	515.9815673828125	26.71040344238281	145.2256011962891	329.5945129394531	93.88075256347656	108.2569198608398	698.34814453125	1001.763244628906	351.9451599121094	828.5650024414063	586.4509887695313	396.3406677246094	831.6979370117188	497.2344665527344	336.4942932128906	967.7352294921875	249.6543579101563	377.2710266113281	1040.0302734375	93.91206359863281	306.3186340332031	1112.708618164063	69.31992340087891	258.98681640625	910.1309814453125	36.24424743652344	277.247314453125	
452	4.51	821.2325439453125	1495.76904296875	194.5146789550781	722.9364624023438	1432.661254882813	33.73122406005859	756.7632446289063	1448.37060546875	371.6552124023438	851.7179565429688	1029.159912109375	199.2015533447266	656.4898681640625	1003.358825683594	102.7276077270508	608.628173828125	598.8325805664063	19.65789413452148	565.367431640625	526.1397094726563	71.46733856201172	520.7857666015625	203.4730682373047	38.76779174804688	470.2025756835938	80.14410400390625	97.0313720703125	513.53515625	27.04469108581543	144.90478515625	324.3622436523438	90.03326416015625	109.1795806884766	688.6156616210938	1001.221435546875	351.0705261230469	820.2269897460938	586.370361328125	395.8636474609375	823.5842895507813	496.8066711425781	336.24462890625	963.2626953125	251.3148803710938	377.4863891601563	1038.153076171875	96.58903503417969	306.84619140625	1111.516479492188	73.51959991455078	259.7207946777344	912.05419921875	35.57809448242188	276.9400024414063	
